<?xml version="1.0" encoding="UTF-8" standalone="no"?>
<!-- Created with Inkscape (http://www.inkscape.org/) -->

<svg
   xmlns:dc="http://purl.org/dc/elements/1.1/"
   xmlns:cc="http://creativecommons.org/ns#"
   xmlns:rdf="http://www.w3.org/1999/02/22-rdf-syntax-ns#"
   xmlns:svg="http://www.w3.org/2000/svg"
   xmlns="http://www.w3.org/2000/svg"
   xmlns:sodipodi="http://sodipodi.sourceforge.net/DTD/sodipodi-0.dtd"
   xmlns:inkscape="http://www.inkscape.org/namespaces/inkscape"
   width="2160"
   height="2160"
   id="svg2"
   version="1.1"
   inkscape:version="0.48.4 r9939"
   sodipodi:docname="empty.svg">
  <defs
     id="defs4" />
  <sodipodi:namedview
     id="base"
     pagecolor="#686868"
     bordercolor="#666666"
     borderopacity="1.0"
     inkscape:pageopacity="1"
     inkscape:pageshadow="2"
     inkscape:zoom="0.24748737"
     inkscape:cx="523.03613"
     inkscape:cy="925.14043"
     inkscape:document-units="in"
     inkscape:current-layer="layer1"
     showgrid="false"
     units="ft"
     inkscape:window-width="1535"
     inkscape:window-height="876"
     inkscape:window-x="65"
     inkscape:window-y="24"
     inkscape:window-maximized="1"
     showguides="true"
     inkscape:guide-bbox="true">
    <sodipodi:guide
       orientation="0,1"
       position="1342.8571,1485.7143"
       id="guide6264" />
    <sodipodi:guide
       orientation="0,1"
       position="1342.8571,702.85714"
       id="guide6266" />
    <sodipodi:guide
       orientation="1,0"
       position="697.14286,2280"
       id="guide6268" />
    <sodipodi:guide
       orientation="1,0"
       position="1434.2857,2011.4286"
       id="guide6270" />
  </sodipodi:namedview>
  <metadata
     id="metadata7">
    <rdf:RDF>
      <cc:Work
         rdf:about="">
        <dc:format>image/svg+xml</dc:format>
        <dc:type
           rdf:resource="http://purl.org/dc/dcmitype/StillImage" />
        <dc:title />
      </cc:Work>
    </rdf:RDF>
  </metadata>
  <g
     inkscape:label="Layer 1"
     inkscape:groupmode="layer"
     id="layer1"
     transform="translate(0,1107.675)">
    <path
       sodipodi:type="arc"
       style="fill:#ffffff;fill-opacity:1;stroke:none"
       id="path6110"
       sodipodi:cx="428.57144"
       sodipodi:cy="211.42857"
       sodipodi:rx="74.285713"
       sodipodi:ry="74.285713"
       d="m 502.85715,211.42857 c 0,41.02687 -33.25884,74.28572 -74.28571,74.28572 -41.02686,0 -74.28571,-33.25885 -74.28571,-74.28572 0,-41.02686 33.25885,-74.28571 74.28571,-74.28571 41.02687,0 74.28571,33.25885 74.28571,74.28571 z"
       transform="matrix(1.2115385,0,0,1.2115385,-159.2308,-1003.8289)" />
    <path
       sodipodi:type="arc"
       style="fill:#ffffff;fill-opacity:1;stroke:none"
       id="path6110-5-9-1"
       sodipodi:cx="428.57144"
       sodipodi:cy="211.42857"
       sodipodi:rx="74.285713"
       sodipodi:ry="74.285713"
       d="m 502.85715,211.42857 c 0,41.02687 -33.25884,74.28572 -74.28571,74.28572 -41.02686,0 -74.28571,-33.25885 -74.28571,-74.28572 0,-41.02686 33.25885,-74.28571 74.28571,-74.28571 41.02687,0 74.28571,33.25885 74.28571,74.28571 z"
       transform="matrix(1.2115385,0,0,1.2115385,560.7692,-1003.8289)" />
    <path
       sodipodi:type="arc"
       style="fill:#ffffff;fill-opacity:1;stroke:none"
       id="path6110-5-9-30"
       sodipodi:cx="428.57144"
       sodipodi:cy="211.42857"
       sodipodi:rx="74.285713"
       sodipodi:ry="74.285713"
       d="m 502.85715,211.42857 c 0,41.02687 -33.25884,74.28572 -74.28571,74.28572 -41.02686,0 -74.28571,-33.25885 -74.28571,-74.28572 0,-41.02686 33.25885,-74.28571 74.28571,-74.28571 41.02687,0 74.28571,33.25885 74.28571,74.28571 z"
       transform="matrix(1.2115385,0,0,1.2115385,1280.7692,-1003.8289)" />
    <path
       sodipodi:type="arc"
       style="fill:#ffffff;fill-opacity:1;stroke:none"
       id="path6110-3"
       sodipodi:cx="428.57144"
       sodipodi:cy="211.42857"
       sodipodi:rx="74.285713"
       sodipodi:ry="74.285713"
       d="m 502.85715,211.42857 c 0,41.02687 -33.25884,74.28572 -74.28571,74.28572 -41.02686,0 -74.28571,-33.25885 -74.28571,-74.28572 0,-41.02686 33.25885,-74.28571 74.28571,-74.28571 41.02687,0 74.28571,33.25885 74.28571,74.28571 z"
       transform="matrix(1.2115385,0,0,1.2115385,-159.2308,-283.82886)" />
    <path
       sodipodi:type="arc"
       style="fill:#ffffff;fill-opacity:1;stroke:none"
       id="path6110-5-9-1-8"
       sodipodi:cx="428.57144"
       sodipodi:cy="211.42857"
       sodipodi:rx="74.285713"
       sodipodi:ry="74.285713"
       d="m 502.85715,211.42857 c 0,41.02687 -33.25884,74.28572 -74.28571,74.28572 -41.02686,0 -74.28571,-33.25885 -74.28571,-74.28572 0,-41.02686 33.25885,-74.28571 74.28571,-74.28571 41.02687,0 74.28571,33.25885 74.28571,74.28571 z"
       transform="matrix(1.2115385,0,0,1.2115385,560.7692,-283.82886)" />
    <path
       sodipodi:type="arc"
       style="fill:#ffffff;fill-opacity:1;stroke:none"
       id="path6110-5-9-30-5"
       sodipodi:cx="428.57144"
       sodipodi:cy="211.42857"
       sodipodi:rx="74.285713"
       sodipodi:ry="74.285713"
       d="m 502.85715,211.42857 c 0,41.02687 -33.25884,74.28572 -74.28571,74.28572 -41.02686,0 -74.28571,-33.25885 -74.28571,-74.28572 0,-41.02686 33.25885,-74.28571 74.28571,-74.28571 41.02687,0 74.28571,33.25885 74.28571,74.28571 z"
       transform="matrix(1.2115385,0,0,1.2115385,1280.7692,-283.82886)" />
    <path
       sodipodi:type="arc"
       style="fill:#ffffff;fill-opacity:1;stroke:none"
       id="path6110-18"
       sodipodi:cx="428.57144"
       sodipodi:cy="211.42857"
       sodipodi:rx="74.285713"
       sodipodi:ry="74.285713"
       d="m 502.85715,211.42857 c 0,41.02687 -33.25884,74.28572 -74.28571,74.28572 -41.02686,0 -74.28571,-33.25885 -74.28571,-74.28572 0,-41.02686 33.25885,-74.28571 74.28571,-74.28571 41.02687,0 74.28571,33.25885 74.28571,74.28571 z"
       transform="matrix(1.2115385,0,0,1.2115385,-159.2308,436.17114)" />
    <path
       sodipodi:type="arc"
       style="fill:#ffffff;fill-opacity:1;stroke:none"
       id="path6110-5-9-1-4"
       sodipodi:cx="428.57144"
       sodipodi:cy="211.42857"
       sodipodi:rx="74.285713"
       sodipodi:ry="74.285713"
       d="m 502.85715,211.42857 c 0,41.02687 -33.25884,74.28572 -74.28571,74.28572 -41.02686,0 -74.28571,-33.25885 -74.28571,-74.28572 0,-41.02686 33.25885,-74.28571 74.28571,-74.28571 41.02687,0 74.28571,33.25885 74.28571,74.28571 z"
       transform="matrix(1.2115385,0,0,1.2115385,560.7692,436.17114)" />
    <path
       sodipodi:type="arc"
       style="fill:#ffffff;fill-opacity:1;stroke:none"
       id="path6110-5-9-30-57"
       sodipodi:cx="428.57144"
       sodipodi:cy="211.42857"
       sodipodi:rx="74.285713"
       sodipodi:ry="74.285713"
       d="m 502.85715,211.42857 c 0,41.02687 -33.25884,74.28572 -74.28571,74.28572 -41.02686,0 -74.28571,-33.25885 -74.28571,-74.28572 0,-41.02686 33.25885,-74.28571 74.28571,-74.28571 41.02687,0 74.28571,33.25885 74.28571,74.28571 z"
       transform="matrix(1.2115385,0,0,1.2115385,1280.7692,436.17114)" />
    <rect
       style="fill:#00ff00;fill-opacity:1;stroke:none"
       id="rect3226"
       width="2160"
       height="2160"
       x="0"
       y="-1107.675" />
  </g>
</svg>
